<svg width="35" height="35" viewBox="0 0 35 35" fill="none" xmlns="http://www.w3.org/2000/svg">
<path d="M17.5 0.416687C22.0283 0.416687 22.5933 0.43377 24.37 0.519187C26.145 0.604604 27.3533 0.889896 28.4167 1.31356C29.5167 1.74748 30.4433 2.33515 31.37 3.28327C32.2175 4.13726 32.8733 5.17028 33.2917 6.31044C33.7033 7.39865 33.9833 8.6389 34.0667 10.4583C34.145 12.2794 34.1667 12.8585 34.1667 17.5C34.1667 22.1416 34.15 22.7207 34.0667 24.5418C33.9833 26.3611 33.7033 27.5997 33.2917 28.6896C32.8745 29.8304 32.2185 30.8637 31.37 31.7168C30.5366 32.5852 29.5288 33.2573 28.4167 33.6865C27.355 34.1084 26.145 34.3954 24.37 34.4809C22.5933 34.5611 22.0283 34.5834 17.5 34.5834C12.9717 34.5834 12.4067 34.5663 10.63 34.4809C8.855 34.3954 7.64667 34.1084 6.58334 33.6865C5.47055 33.2585 4.46255 32.5862 3.63 31.7168C2.78235 30.8629 2.12655 29.8299 1.70834 28.6896C1.295 27.6014 1.01667 26.3611 0.933336 24.5418C0.855002 22.7207 0.833336 22.1416 0.833336 17.5C0.833336 12.8585 0.850002 12.2794 0.933336 10.4583C1.01667 8.63719 1.295 7.40035 1.70834 6.31044C2.1254 5.16958 2.78134 4.13628 3.63 3.28327C4.46279 2.41412 5.47072 1.74189 6.58334 1.31356C7.64667 0.889896 8.85334 0.604604 10.63 0.519187C12.4067 0.438895 12.9717 0.416687 17.5 0.416687ZM17.5 8.95835C15.2899 8.95835 13.1702 9.85828 11.6074 11.4601C10.0446 13.062 9.16667 15.2346 9.16667 17.5C9.16667 19.7654 10.0446 21.938 11.6074 23.5399C13.1702 25.1418 15.2899 26.0417 17.5 26.0417C19.7101 26.0417 21.8298 25.1418 23.3926 23.5399C24.9554 21.938 25.8333 19.7654 25.8333 17.5C25.8333 15.2346 24.9554 13.062 23.3926 11.4601C21.8298 9.85828 19.7101 8.95835 17.5 8.95835ZM28.3333 8.53127C28.3333 7.96492 28.1138 7.42177 27.7231 7.0213C27.3324 6.62083 26.8025 6.39585 26.25 6.39585C25.6975 6.39585 25.1676 6.62083 24.7769 7.0213C24.3862 7.42177 24.1667 7.96492 24.1667 8.53127C24.1667 9.09762 24.3862 9.64077 24.7769 10.0412C25.1676 10.4417 25.6975 10.6667 26.25 10.6667C26.8025 10.6667 27.3324 10.4417 27.7231 10.0412C28.1138 9.64077 28.3333 9.09762 28.3333 8.53127ZM17.5 12.375C18.8261 12.375 20.0979 12.915 21.0355 13.8761C21.9732 14.8372 22.5 16.1408 22.5 17.5C22.5 18.8593 21.9732 20.1628 21.0355 21.1239C20.0979 22.0851 18.8261 22.625 17.5 22.625C16.1739 22.625 14.9022 22.0851 13.9645 21.1239C13.0268 20.1628 12.5 18.8593 12.5 17.5C12.5 16.1408 13.0268 14.8372 13.9645 13.8761C14.9022 12.915 16.1739 12.375 17.5 12.375Z" fill="#DA3A74"/>
</svg>
