<svg width="35" height="31" viewBox="0 0 35 31" fill="none" xmlns="http://www.w3.org/2000/svg">
<path d="M1.75 0.125H33.25C33.7141 0.125 34.1592 0.304985 34.4874 0.625359C34.8156 0.945734 35 1.38026 35 1.83333V29.1667C35 29.6197 34.8156 30.0543 34.4874 30.3746C34.1592 30.695 33.7141 30.875 33.25 30.875H1.75C1.28587 30.875 0.840752 30.695 0.512563 30.3746C0.184374 30.0543 0 29.6197 0 29.1667V1.83333C0 1.38026 0.184374 0.945734 0.512563 0.625359C0.840752 0.304985 1.28587 0.125 1.75 0.125V0.125ZM31.5 7.36492L17.626 19.4941L3.5 7.32733V27.4583H31.5V7.36492ZM4.39425 3.54167L17.6067 14.9226L30.6285 3.54167H4.39425Z" fill="#DAA73A"/>
</svg>
