<svg width="32" height="31" viewBox="0 0 32 31" fill="none" xmlns="http://www.w3.org/2000/svg">
<path d="M26.8223 26.3291H22.2696V19.1934C22.2696 17.4919 22.2354 15.3018 19.895 15.3018C17.5221 15.3018 17.16 17.1537 17.16 19.0687V26.3291H12.6055V11.6563H16.9789V13.655H17.0387C17.6503 12.5036 19.1365 11.2855 21.3573 11.2855C25.9698 11.2855 26.824 14.323 26.824 18.2743V26.3291H26.8223ZM7.46346 9.64896C7.11591 9.64941 6.77169 9.58126 6.45052 9.44841C6.12936 9.31557 5.83758 9.12064 5.59191 8.8748C5.34623 8.62897 5.15149 8.33706 5.01885 8.01581C4.88621 7.69457 4.81828 7.3503 4.81896 7.00275C4.8193 6.47972 4.97472 5.96853 5.26559 5.53383C5.55645 5.09914 5.96968 4.76045 6.45303 4.56061C6.93638 4.36076 7.46813 4.30874 7.98105 4.41111C8.49397 4.51348 8.96501 4.76564 9.33461 5.13572C9.70421 5.5058 9.95577 5.97717 10.0575 6.49022C10.1592 7.00327 10.1065 7.53495 9.906 8.01804C9.70554 8.50113 9.36632 8.91393 8.93124 9.20423C8.49617 9.49453 7.98478 9.6493 7.46175 9.64896H7.46346ZM9.74579 26.3291H5.17942V11.6563H9.7475V26.3291H9.74579ZM29.1029 0.125H2.89538C1.63804 0.125 0.625 1.11583 0.625 2.34071V28.6593C0.625 29.8842 1.63975 30.875 2.89367 30.875H29.0961C30.35 30.875 31.375 29.8842 31.375 28.6593V2.34071C31.375 1.11583 30.35 0.125 29.0961 0.125H29.1012H29.1029Z" fill="#0A66C2"/>
</svg>
